<mxfile host="app.diagrams.net" modified="2022-10-28T13:45:35.125Z" agent="5.0 (Windows)" etag="TESKvvxG0P-wBAAm4_3g" version="20.4.1" type="github" pages="8">
  <diagram id="R2lEEEUBdFMjLlhIrx00" name="MER">
    <mxGraphModel dx="1736" dy="930" grid="1" gridSize="10" guides="1" tooltips="1" connect="1" arrows="1" fold="1" page="1" pageScale="1" pageWidth="850" pageHeight="1100" math="0" shadow="0" extFonts="Permanent Marker^https://fonts.googleapis.com/css?family=Permanent+Marker">
      <root>
        <mxCell id="0" />
        <mxCell id="1" parent="0" />
        <mxCell id="yQORpLr_msd9n2ilkDRE-75" style="edgeStyle=none;rounded=0;orthogonalLoop=1;jettySize=auto;html=1;exitX=0.5;exitY=1;exitDx=0;exitDy=0;entryX=1;entryY=0.5;entryDx=0;entryDy=0;fontSize=18;endArrow=none;endFill=0;" parent="1" source="m2zH_tmVmHCwzcI0nazo-12" target="yQORpLr_msd9n2ilkDRE-72" edge="1">
          <mxGeometry relative="1" as="geometry" />
        </mxCell>
        <mxCell id="m2zH_tmVmHCwzcI0nazo-12" value="Pessoa" style="rounded=1;whiteSpace=wrap;html=1;fontSize=17;" parent="1" vertex="1">
          <mxGeometry x="917.11" y="208" width="120" height="60" as="geometry" />
        </mxCell>
        <mxCell id="IsGm7iIbSQp0N8kiTlz7-10" style="edgeStyle=none;rounded=0;orthogonalLoop=1;jettySize=auto;html=1;exitX=1;exitY=0.75;exitDx=0;exitDy=0;entryX=0;entryY=0.5;entryDx=0;entryDy=0;fontSize=18;startArrow=none;startFill=0;endArrow=none;endFill=0;" parent="1" source="m2zH_tmVmHCwzcI0nazo-14" target="IsGm7iIbSQp0N8kiTlz7-6" edge="1">
          <mxGeometry relative="1" as="geometry" />
        </mxCell>
        <mxCell id="IsGm7iIbSQp0N8kiTlz7-24" style="edgeStyle=none;rounded=0;orthogonalLoop=1;jettySize=auto;html=1;exitX=1;exitY=0;exitDx=0;exitDy=0;fontSize=18;startArrow=none;startFill=0;endArrow=none;endFill=0;entryX=0;entryY=0.5;entryDx=0;entryDy=0;" parent="1" source="IsGm7iIbSQp0N8kiTlz7-81" target="IsGm7iIbSQp0N8kiTlz7-23" edge="1">
          <mxGeometry relative="1" as="geometry">
            <mxPoint x="1970" y="563" as="targetPoint" />
            <Array as="points">
              <mxPoint x="1720" y="453" />
            </Array>
          </mxGeometry>
        </mxCell>
        <mxCell id="m2zH_tmVmHCwzcI0nazo-14" value="Animal" style="rounded=1;whiteSpace=wrap;html=1;fontSize=17;" parent="1" vertex="1">
          <mxGeometry x="1610" y="153" width="160" height="60" as="geometry" />
        </mxCell>
        <mxCell id="IsGm7iIbSQp0N8kiTlz7-86" value="" style="edgeStyle=none;rounded=0;orthogonalLoop=1;jettySize=auto;html=1;fontSize=18;startArrow=none;startFill=0;endArrow=none;endFill=0;" parent="1" source="m2zH_tmVmHCwzcI0nazo-33" edge="1">
          <mxGeometry relative="1" as="geometry">
            <mxPoint x="2730" y="428" as="targetPoint" />
          </mxGeometry>
        </mxCell>
        <mxCell id="m2zH_tmVmHCwzcI0nazo-33" value="Exame" style="rounded=1;whiteSpace=wrap;html=1;fontSize=17;fillColor=#FFFFFF;" parent="1" vertex="1">
          <mxGeometry x="2810" y="398" width="120" height="60" as="geometry" />
        </mxCell>
        <mxCell id="IsGm7iIbSQp0N8kiTlz7-69" style="edgeStyle=none;rounded=0;orthogonalLoop=1;jettySize=auto;html=1;exitX=1;exitY=0.75;exitDx=0;exitDy=0;entryX=0;entryY=0.5;entryDx=0;entryDy=0;fontSize=21;startArrow=none;startFill=0;endArrow=none;endFill=0;" parent="1" source="m2zH_tmVmHCwzcI0nazo-34" target="IsGm7iIbSQp0N8kiTlz7-67" edge="1">
          <mxGeometry relative="1" as="geometry" />
        </mxCell>
        <mxCell id="m2zH_tmVmHCwzcI0nazo-34" value="Equipe" style="rounded=1;whiteSpace=wrap;html=1;fontSize=17;fillColor=#FFFFFF;" parent="1" vertex="1">
          <mxGeometry x="1310" y="908" width="120" height="60" as="geometry" />
        </mxCell>
        <mxCell id="yQORpLr_msd9n2ilkDRE-120" style="edgeStyle=none;rounded=0;orthogonalLoop=1;jettySize=auto;html=1;exitX=0.5;exitY=1;exitDx=0;exitDy=0;entryX=0.5;entryY=0;entryDx=0;entryDy=0;fontSize=18;endArrow=none;endFill=0;startArrow=none;startFill=0;" parent="1" source="yQORpLr_msd9n2ilkDRE-20" target="yQORpLr_msd9n2ilkDRE-117" edge="1">
          <mxGeometry relative="1" as="geometry">
            <Array as="points">
              <mxPoint x="1510" y="693" />
            </Array>
          </mxGeometry>
        </mxCell>
        <mxCell id="yQORpLr_msd9n2ilkDRE-20" value="Tratamento" style="rounded=1;whiteSpace=wrap;html=1;fontSize=18;fillColor=#FFFFFF;" parent="1" vertex="1">
          <mxGeometry x="1450" y="573" width="120" height="60" as="geometry" />
        </mxCell>
        <mxCell id="yQORpLr_msd9n2ilkDRE-22" style="edgeStyle=none;rounded=0;orthogonalLoop=1;jettySize=auto;html=1;exitX=0.5;exitY=1;exitDx=0;exitDy=0;fontSize=18;endArrow=none;endFill=0;" parent="1" source="yQORpLr_msd9n2ilkDRE-21" target="yQORpLr_msd9n2ilkDRE-20" edge="1">
          <mxGeometry relative="1" as="geometry" />
        </mxCell>
        <mxCell id="yQORpLr_msd9n2ilkDRE-21" value="descricao" style="ellipse;whiteSpace=wrap;html=1;fontSize=18;fillColor=#FFFFFF;" parent="1" vertex="1">
          <mxGeometry x="1530" y="468" width="90" height="40" as="geometry" />
        </mxCell>
        <mxCell id="yQORpLr_msd9n2ilkDRE-28" style="edgeStyle=none;rounded=0;orthogonalLoop=1;jettySize=auto;html=1;exitX=0.5;exitY=1;exitDx=0;exitDy=0;fontSize=18;endArrow=none;endFill=0;" parent="1" source="yQORpLr_msd9n2ilkDRE-23" target="yQORpLr_msd9n2ilkDRE-20" edge="1">
          <mxGeometry relative="1" as="geometry" />
        </mxCell>
        <mxCell id="yQORpLr_msd9n2ilkDRE-23" value="dataInicio" style="ellipse;whiteSpace=wrap;html=1;fontSize=18;fillColor=#FFFFFF;" parent="1" vertex="1">
          <mxGeometry x="1603" y="513" width="97" height="40" as="geometry" />
        </mxCell>
        <mxCell id="yQORpLr_msd9n2ilkDRE-27" style="edgeStyle=none;rounded=0;orthogonalLoop=1;jettySize=auto;html=1;exitX=1;exitY=1;exitDx=0;exitDy=0;entryX=0;entryY=0.25;entryDx=0;entryDy=0;fontSize=18;endArrow=none;endFill=0;" parent="1" source="yQORpLr_msd9n2ilkDRE-25" target="yQORpLr_msd9n2ilkDRE-20" edge="1">
          <mxGeometry relative="1" as="geometry" />
        </mxCell>
        <mxCell id="yQORpLr_msd9n2ilkDRE-25" value="" style="ellipse;whiteSpace=wrap;html=1;fontSize=18;fillColor=#000000;" parent="1" vertex="1">
          <mxGeometry x="1390" y="508" width="20" height="10" as="geometry" />
        </mxCell>
        <mxCell id="yQORpLr_msd9n2ilkDRE-26" value="Id" style="text;html=1;strokeColor=none;fillColor=none;align=center;verticalAlign=middle;whiteSpace=wrap;rounded=0;fontSize=18;" parent="1" vertex="1">
          <mxGeometry x="1335" y="498" width="60" height="30" as="geometry" />
        </mxCell>
        <mxCell id="yQORpLr_msd9n2ilkDRE-30" style="edgeStyle=none;rounded=0;orthogonalLoop=1;jettySize=auto;html=1;exitX=0.5;exitY=1;exitDx=0;exitDy=0;entryX=0.175;entryY=0.033;entryDx=0;entryDy=0;entryPerimeter=0;fontSize=18;endArrow=none;endFill=0;" parent="1" source="yQORpLr_msd9n2ilkDRE-29" target="m2zH_tmVmHCwzcI0nazo-33" edge="1">
          <mxGeometry relative="1" as="geometry" />
        </mxCell>
        <mxCell id="yQORpLr_msd9n2ilkDRE-29" value="" style="ellipse;whiteSpace=wrap;html=1;fontSize=18;fillColor=#000000;" parent="1" vertex="1">
          <mxGeometry x="2800" y="343" width="20" height="10" as="geometry" />
        </mxCell>
        <mxCell id="yQORpLr_msd9n2ilkDRE-31" value="Id" style="text;html=1;strokeColor=none;fillColor=none;align=center;verticalAlign=middle;whiteSpace=wrap;rounded=0;fontSize=18;" parent="1" vertex="1">
          <mxGeometry x="2750" y="333" width="60" height="30" as="geometry" />
        </mxCell>
        <mxCell id="yQORpLr_msd9n2ilkDRE-33" style="edgeStyle=none;rounded=0;orthogonalLoop=1;jettySize=auto;html=1;exitX=0.5;exitY=1;exitDx=0;exitDy=0;fontSize=18;endArrow=none;endFill=0;" parent="1" source="yQORpLr_msd9n2ilkDRE-32" target="m2zH_tmVmHCwzcI0nazo-33" edge="1">
          <mxGeometry relative="1" as="geometry" />
        </mxCell>
        <mxCell id="yQORpLr_msd9n2ilkDRE-32" value="nome" style="ellipse;whiteSpace=wrap;html=1;fontSize=18;fillColor=#FFFFFF;" parent="1" vertex="1">
          <mxGeometry x="2830" y="293" width="60" height="30" as="geometry" />
        </mxCell>
        <mxCell id="yQORpLr_msd9n2ilkDRE-35" style="edgeStyle=none;rounded=0;orthogonalLoop=1;jettySize=auto;html=1;exitX=0.5;exitY=1;exitDx=0;exitDy=0;fontSize=18;endArrow=none;endFill=0;entryX=0.75;entryY=0;entryDx=0;entryDy=0;" parent="1" source="yQORpLr_msd9n2ilkDRE-34" target="m2zH_tmVmHCwzcI0nazo-33" edge="1">
          <mxGeometry relative="1" as="geometry">
            <mxPoint x="2890" y="393" as="targetPoint" />
          </mxGeometry>
        </mxCell>
        <mxCell id="yQORpLr_msd9n2ilkDRE-34" value="data" style="ellipse;whiteSpace=wrap;html=1;fontSize=18;fillColor=#FFFFFF;" parent="1" vertex="1">
          <mxGeometry x="2920" y="283" width="60" height="30" as="geometry" />
        </mxCell>
        <mxCell id="yQORpLr_msd9n2ilkDRE-36" value="Dono" style="rounded=1;whiteSpace=wrap;html=1;fontSize=18;fillColor=#FFFFFF;" parent="1" vertex="1">
          <mxGeometry x="1100" y="458" width="120" height="60" as="geometry" />
        </mxCell>
        <mxCell id="yQORpLr_msd9n2ilkDRE-50" style="edgeStyle=none;rounded=0;orthogonalLoop=1;jettySize=auto;html=1;exitX=0.5;exitY=1;exitDx=0;exitDy=0;entryX=0.75;entryY=0;entryDx=0;entryDy=0;fontSize=18;endArrow=none;endFill=0;" parent="1" source="yQORpLr_msd9n2ilkDRE-49" target="m2zH_tmVmHCwzcI0nazo-14" edge="1">
          <mxGeometry relative="1" as="geometry" />
        </mxCell>
        <mxCell id="yQORpLr_msd9n2ilkDRE-49" value="Alergia" style="ellipse;shape=doubleEllipse;whiteSpace=wrap;html=1;fontSize=17;fillColor=#FFFFFF;" parent="1" vertex="1">
          <mxGeometry x="1660" y="58" width="80" height="40" as="geometry" />
        </mxCell>
        <mxCell id="yQORpLr_msd9n2ilkDRE-52" style="edgeStyle=none;rounded=0;orthogonalLoop=1;jettySize=auto;html=1;exitX=0.5;exitY=1;exitDx=0;exitDy=0;entryX=0.5;entryY=0;entryDx=0;entryDy=0;fontSize=18;endArrow=none;endFill=0;" parent="1" source="yQORpLr_msd9n2ilkDRE-51" target="m2zH_tmVmHCwzcI0nazo-14" edge="1">
          <mxGeometry relative="1" as="geometry" />
        </mxCell>
        <mxCell id="yQORpLr_msd9n2ilkDRE-51" value="Raca" style="ellipse;whiteSpace=wrap;html=1;fontSize=18;fillColor=#FFFFFF;" parent="1" vertex="1">
          <mxGeometry x="1570" y="33" width="70" height="50" as="geometry" />
        </mxCell>
        <mxCell id="yQORpLr_msd9n2ilkDRE-54" style="edgeStyle=none;rounded=0;orthogonalLoop=1;jettySize=auto;html=1;exitX=0.5;exitY=0;exitDx=0;exitDy=0;entryX=0.25;entryY=0;entryDx=0;entryDy=0;fontSize=18;endArrow=none;endFill=0;" parent="1" source="yQORpLr_msd9n2ilkDRE-53" target="m2zH_tmVmHCwzcI0nazo-14" edge="1">
          <mxGeometry relative="1" as="geometry" />
        </mxCell>
        <mxCell id="yQORpLr_msd9n2ilkDRE-53" value="" style="ellipse;whiteSpace=wrap;html=1;fontSize=18;fillColor=#000000;" parent="1" vertex="1">
          <mxGeometry x="1560" y="118" width="25" height="15" as="geometry" />
        </mxCell>
        <mxCell id="yQORpLr_msd9n2ilkDRE-55" value="Id" style="text;html=1;strokeColor=none;fillColor=none;align=center;verticalAlign=middle;whiteSpace=wrap;rounded=0;fontSize=18;" parent="1" vertex="1">
          <mxGeometry x="1510" y="98" width="60" height="30" as="geometry" />
        </mxCell>
        <mxCell id="yQORpLr_msd9n2ilkDRE-67" style="edgeStyle=none;rounded=0;orthogonalLoop=1;jettySize=auto;html=1;exitX=0;exitY=1;exitDx=0;exitDy=0;fontSize=18;endArrow=none;endFill=0;" parent="1" source="yQORpLr_msd9n2ilkDRE-57" target="m2zH_tmVmHCwzcI0nazo-12" edge="1">
          <mxGeometry relative="1" as="geometry" />
        </mxCell>
        <mxCell id="yQORpLr_msd9n2ilkDRE-57" value="nome" style="ellipse;whiteSpace=wrap;html=1;fillColor=#FFFFFF;fontSize=18;" parent="1" vertex="1">
          <mxGeometry x="1030" y="38" width="60" height="30" as="geometry" />
        </mxCell>
        <mxCell id="yQORpLr_msd9n2ilkDRE-68" style="edgeStyle=none;rounded=0;orthogonalLoop=1;jettySize=auto;html=1;exitX=0.5;exitY=1;exitDx=0;exitDy=0;fontSize=18;endArrow=none;endFill=0;" parent="1" source="yQORpLr_msd9n2ilkDRE-58" target="m2zH_tmVmHCwzcI0nazo-12" edge="1">
          <mxGeometry relative="1" as="geometry" />
        </mxCell>
        <mxCell id="yQORpLr_msd9n2ilkDRE-58" value="telefone" style="ellipse;shape=doubleEllipse;whiteSpace=wrap;html=1;fontSize=17;fillColor=#FFFFFF;" parent="1" vertex="1">
          <mxGeometry x="1060" y="88" width="80" height="40" as="geometry" />
        </mxCell>
        <mxCell id="yQORpLr_msd9n2ilkDRE-66" style="edgeStyle=none;rounded=0;orthogonalLoop=1;jettySize=auto;html=1;exitX=0.5;exitY=1;exitDx=0;exitDy=0;fontSize=18;endArrow=none;endFill=0;" parent="1" source="yQORpLr_msd9n2ilkDRE-59" target="m2zH_tmVmHCwzcI0nazo-12" edge="1">
          <mxGeometry relative="1" as="geometry" />
        </mxCell>
        <mxCell id="yQORpLr_msd9n2ilkDRE-59" value="Endereço" style="ellipse;whiteSpace=wrap;html=1;fontSize=18;fillColor=#FFFFFF;" parent="1" vertex="1">
          <mxGeometry x="850" y="108" width="90" height="50" as="geometry" />
        </mxCell>
        <mxCell id="yQORpLr_msd9n2ilkDRE-60" style="edgeStyle=none;rounded=0;orthogonalLoop=1;jettySize=auto;html=1;exitX=1;exitY=1;exitDx=0;exitDy=0;strokeColor=#000000;strokeWidth=1;fontSize=18;endArrow=none;endFill=0;startSize=0;" parent="1" source="yQORpLr_msd9n2ilkDRE-61" target="yQORpLr_msd9n2ilkDRE-59" edge="1">
          <mxGeometry relative="1" as="geometry" />
        </mxCell>
        <mxCell id="yQORpLr_msd9n2ilkDRE-61" value="Rua" style="ellipse;whiteSpace=wrap;html=1;fontSize=18;fillColor=#FFFFFF;" parent="1" vertex="1">
          <mxGeometry x="790" y="58" width="50" height="30" as="geometry" />
        </mxCell>
        <mxCell id="yQORpLr_msd9n2ilkDRE-62" style="edgeStyle=none;rounded=0;orthogonalLoop=1;jettySize=auto;html=1;exitX=0.5;exitY=1;exitDx=0;exitDy=0;strokeColor=#000000;strokeWidth=1;fontSize=18;endArrow=none;endFill=0;startSize=0;" parent="1" source="yQORpLr_msd9n2ilkDRE-63" target="yQORpLr_msd9n2ilkDRE-59" edge="1">
          <mxGeometry relative="1" as="geometry" />
        </mxCell>
        <mxCell id="yQORpLr_msd9n2ilkDRE-63" value="Avenida" style="ellipse;whiteSpace=wrap;html=1;fontSize=18;fillColor=#FFFFFF;" parent="1" vertex="1">
          <mxGeometry x="835" y="8" width="75" height="40" as="geometry" />
        </mxCell>
        <mxCell id="yQORpLr_msd9n2ilkDRE-64" style="edgeStyle=none;rounded=0;orthogonalLoop=1;jettySize=auto;html=1;exitX=0.5;exitY=1;exitDx=0;exitDy=0;strokeColor=#000000;strokeWidth=1;fontSize=18;endArrow=none;endFill=0;startSize=0;" parent="1" source="yQORpLr_msd9n2ilkDRE-65" target="yQORpLr_msd9n2ilkDRE-59" edge="1">
          <mxGeometry relative="1" as="geometry" />
        </mxCell>
        <mxCell id="yQORpLr_msd9n2ilkDRE-65" value="Bairro" style="ellipse;whiteSpace=wrap;html=1;fontSize=18;fillColor=#FFFFFF;" parent="1" vertex="1">
          <mxGeometry x="910" y="33" width="70" height="40" as="geometry" />
        </mxCell>
        <mxCell id="yQORpLr_msd9n2ilkDRE-77" style="edgeStyle=none;rounded=0;orthogonalLoop=1;jettySize=auto;html=1;exitX=0;exitY=0.75;exitDx=0;exitDy=0;fontSize=18;endArrow=none;endFill=0;entryX=0;entryY=0.5;entryDx=0;entryDy=0;" parent="1" source="yQORpLr_msd9n2ilkDRE-72" target="yQORpLr_msd9n2ilkDRE-36" edge="1">
          <mxGeometry relative="1" as="geometry">
            <mxPoint x="1090" y="488" as="targetPoint" />
            <Array as="points">
              <mxPoint x="1030" y="488" />
            </Array>
          </mxGeometry>
        </mxCell>
        <mxCell id="yQORpLr_msd9n2ilkDRE-83" style="edgeStyle=none;rounded=0;orthogonalLoop=1;jettySize=auto;html=1;exitX=0;exitY=0.25;exitDx=0;exitDy=0;fontSize=18;endArrow=none;endFill=0;" parent="1" source="yQORpLr_msd9n2ilkDRE-72" target="yQORpLr_msd9n2ilkDRE-82" edge="1">
          <mxGeometry relative="1" as="geometry" />
        </mxCell>
        <mxCell id="yQORpLr_msd9n2ilkDRE-72" value="" style="triangle;whiteSpace=wrap;html=1;fontSize=18;fillColor=#F2F2F2;direction=north;" parent="1" vertex="1">
          <mxGeometry x="949.61" y="303" width="55" height="30" as="geometry" />
        </mxCell>
        <mxCell id="yQORpLr_msd9n2ilkDRE-79" style="edgeStyle=none;rounded=0;orthogonalLoop=1;jettySize=auto;html=1;exitX=0;exitY=1;exitDx=0;exitDy=0;entryX=0.75;entryY=0;entryDx=0;entryDy=0;fontSize=18;endArrow=none;endFill=0;" parent="1" source="yQORpLr_msd9n2ilkDRE-78" target="yQORpLr_msd9n2ilkDRE-36" edge="1">
          <mxGeometry relative="1" as="geometry" />
        </mxCell>
        <mxCell id="yQORpLr_msd9n2ilkDRE-78" value="" style="ellipse;whiteSpace=wrap;html=1;fontSize=18;fillColor=#000000;" parent="1" vertex="1">
          <mxGeometry x="1190" y="403" width="20" height="10" as="geometry" />
        </mxCell>
        <mxCell id="yQORpLr_msd9n2ilkDRE-80" value="Id" style="text;html=1;strokeColor=none;fillColor=none;align=center;verticalAlign=middle;whiteSpace=wrap;rounded=0;fontSize=18;" parent="1" vertex="1">
          <mxGeometry x="1190" y="393" width="60" height="30" as="geometry" />
        </mxCell>
        <mxCell id="yQORpLr_msd9n2ilkDRE-95" style="edgeStyle=none;rounded=0;orthogonalLoop=1;jettySize=auto;html=1;exitX=0.5;exitY=1;exitDx=0;exitDy=0;entryX=1;entryY=0.5;entryDx=0;entryDy=0;fontSize=18;endArrow=none;endFill=0;" parent="1" source="yQORpLr_msd9n2ilkDRE-82" target="yQORpLr_msd9n2ilkDRE-94" edge="1">
          <mxGeometry relative="1" as="geometry" />
        </mxCell>
        <mxCell id="KB_mV7S6W3KgOUlaxx0e-17" style="edgeStyle=none;rounded=0;orthogonalLoop=1;jettySize=auto;html=1;exitX=0;exitY=0.5;exitDx=0;exitDy=0;entryX=1;entryY=0.5;entryDx=0;entryDy=0;fontSize=15;endArrow=none;endFill=0;" parent="1" source="yQORpLr_msd9n2ilkDRE-82" target="KB_mV7S6W3KgOUlaxx0e-16" edge="1">
          <mxGeometry relative="1" as="geometry" />
        </mxCell>
        <mxCell id="yQORpLr_msd9n2ilkDRE-82" value="Funcionario" style="rounded=1;whiteSpace=wrap;html=1;fontSize=18;fillColor=#FFFFFF;" parent="1" vertex="1">
          <mxGeometry x="857.5" y="480.5" width="120" height="60" as="geometry" />
        </mxCell>
        <mxCell id="yQORpLr_msd9n2ilkDRE-84" value="Veterinario" style="rounded=1;whiteSpace=wrap;html=1;fontSize=17;" parent="1" vertex="1">
          <mxGeometry x="940" y="708" width="120" height="65" as="geometry" />
        </mxCell>
        <mxCell id="yQORpLr_msd9n2ilkDRE-85" style="edgeStyle=orthogonalEdgeStyle;rounded=0;orthogonalLoop=1;jettySize=auto;html=1;exitX=1;exitY=1;exitDx=0;exitDy=0;strokeWidth=0;startSize=0;strokeColor=none;" parent="1" source="yQORpLr_msd9n2ilkDRE-87" target="yQORpLr_msd9n2ilkDRE-84" edge="1">
          <mxGeometry relative="1" as="geometry" />
        </mxCell>
        <mxCell id="yQORpLr_msd9n2ilkDRE-86" style="rounded=0;orthogonalLoop=1;jettySize=auto;html=1;exitX=1;exitY=1;exitDx=0;exitDy=0;strokeWidth=1;startSize=0;endArrow=none;endFill=0;strokeColor=#000000;fontStyle=1" parent="1" source="yQORpLr_msd9n2ilkDRE-87" target="yQORpLr_msd9n2ilkDRE-84" edge="1">
          <mxGeometry relative="1" as="geometry" />
        </mxCell>
        <mxCell id="yQORpLr_msd9n2ilkDRE-87" value="" style="ellipse;whiteSpace=wrap;html=1;fillColor=#000000;" parent="1" vertex="1">
          <mxGeometry x="984.61" y="673" width="20" height="10" as="geometry" />
        </mxCell>
        <mxCell id="yQORpLr_msd9n2ilkDRE-88" value="Recepcionista" style="rounded=1;whiteSpace=wrap;html=1;fontSize=17;" parent="1" vertex="1">
          <mxGeometry x="765" y="703" width="125" height="65" as="geometry" />
        </mxCell>
        <mxCell id="yQORpLr_msd9n2ilkDRE-89" value="Id" style="text;html=1;strokeColor=none;fillColor=none;align=center;verticalAlign=middle;whiteSpace=wrap;rounded=0;fontSize=17;" parent="1" vertex="1">
          <mxGeometry x="949.61" y="653" width="60" height="30" as="geometry" />
        </mxCell>
        <mxCell id="yQORpLr_msd9n2ilkDRE-90" style="rounded=0;orthogonalLoop=1;jettySize=auto;html=1;exitX=0.5;exitY=1;exitDx=0;exitDy=0;endArrow=none;endFill=0;" parent="1" source="yQORpLr_msd9n2ilkDRE-91" target="yQORpLr_msd9n2ilkDRE-88" edge="1">
          <mxGeometry relative="1" as="geometry" />
        </mxCell>
        <mxCell id="yQORpLr_msd9n2ilkDRE-91" value="" style="ellipse;whiteSpace=wrap;html=1;fillColor=#000000;" parent="1" vertex="1">
          <mxGeometry x="780" y="673" width="20" height="10" as="geometry" />
        </mxCell>
        <mxCell id="yQORpLr_msd9n2ilkDRE-92" value="Id" style="text;html=1;strokeColor=none;fillColor=none;align=center;verticalAlign=middle;whiteSpace=wrap;rounded=0;fontSize=18;" parent="1" vertex="1">
          <mxGeometry x="740" y="663" width="60" height="30" as="geometry" />
        </mxCell>
        <mxCell id="yQORpLr_msd9n2ilkDRE-96" style="edgeStyle=none;rounded=0;orthogonalLoop=1;jettySize=auto;html=1;exitX=0;exitY=0.25;exitDx=0;exitDy=0;entryX=0.75;entryY=0;entryDx=0;entryDy=0;fontSize=18;endArrow=none;endFill=0;" parent="1" source="yQORpLr_msd9n2ilkDRE-94" target="yQORpLr_msd9n2ilkDRE-88" edge="1">
          <mxGeometry relative="1" as="geometry" />
        </mxCell>
        <mxCell id="yQORpLr_msd9n2ilkDRE-97" style="edgeStyle=none;rounded=0;orthogonalLoop=1;jettySize=auto;html=1;exitX=0;exitY=0.5;exitDx=0;exitDy=0;entryX=0.25;entryY=0;entryDx=0;entryDy=0;fontSize=18;endArrow=none;endFill=0;" parent="1" source="yQORpLr_msd9n2ilkDRE-94" target="yQORpLr_msd9n2ilkDRE-84" edge="1">
          <mxGeometry relative="1" as="geometry" />
        </mxCell>
        <mxCell id="yQORpLr_msd9n2ilkDRE-94" value="" style="triangle;whiteSpace=wrap;html=1;fontSize=18;fillColor=#F2F2F2;direction=north;" parent="1" vertex="1">
          <mxGeometry x="890" y="593" width="55" height="30" as="geometry" />
        </mxCell>
        <mxCell id="yQORpLr_msd9n2ilkDRE-99" style="edgeStyle=none;rounded=0;orthogonalLoop=1;jettySize=auto;html=1;exitX=0.5;exitY=1;exitDx=0;exitDy=0;entryX=1;entryY=0.25;entryDx=0;entryDy=0;fontSize=18;endArrow=none;endFill=0;" parent="1" source="yQORpLr_msd9n2ilkDRE-98" target="yQORpLr_msd9n2ilkDRE-84" edge="1">
          <mxGeometry relative="1" as="geometry" />
        </mxCell>
        <mxCell id="yQORpLr_msd9n2ilkDRE-98" value="especialidade" style="ellipse;whiteSpace=wrap;html=1;fontSize=18;fillColor=#FFFFFF;" parent="1" vertex="1">
          <mxGeometry x="995" y="593" width="130" height="60" as="geometry" />
        </mxCell>
        <mxCell id="yQORpLr_msd9n2ilkDRE-101" style="edgeStyle=none;rounded=0;orthogonalLoop=1;jettySize=auto;html=1;exitX=1;exitY=1;exitDx=0;exitDy=0;entryX=0.25;entryY=0;entryDx=0;entryDy=0;fontSize=18;endArrow=none;endFill=0;" parent="1" source="yQORpLr_msd9n2ilkDRE-100" target="yQORpLr_msd9n2ilkDRE-82" edge="1">
          <mxGeometry relative="1" as="geometry" />
        </mxCell>
        <mxCell id="yQORpLr_msd9n2ilkDRE-100" value="salario" style="ellipse;whiteSpace=wrap;html=1;fontSize=18;fillColor=#FFFFFF;" parent="1" vertex="1">
          <mxGeometry x="760" y="383" width="80" height="50" as="geometry" />
        </mxCell>
        <mxCell id="yQORpLr_msd9n2ilkDRE-105" style="edgeStyle=none;rounded=0;orthogonalLoop=1;jettySize=auto;html=1;exitX=0;exitY=0.5;exitDx=0;exitDy=0;fontSize=18;endArrow=none;endFill=0;startArrow=none;startFill=0;entryX=1;entryY=0.5;entryDx=0;entryDy=0;" parent="1" source="m2zH_tmVmHCwzcI0nazo-14" target="yQORpLr_msd9n2ilkDRE-104" edge="1">
          <mxGeometry relative="1" as="geometry">
            <mxPoint x="1450" y="293" as="targetPoint" />
          </mxGeometry>
        </mxCell>
        <mxCell id="yQORpLr_msd9n2ilkDRE-131" style="edgeStyle=none;rounded=0;orthogonalLoop=1;jettySize=auto;html=1;entryX=0.5;entryY=1;entryDx=0;entryDy=0;fontSize=20;startArrow=none;startFill=0;endArrow=none;endFill=0;exitX=1;exitY=0.5;exitDx=0;exitDy=0;" parent="1" source="yQORpLr_msd9n2ilkDRE-36" target="yQORpLr_msd9n2ilkDRE-104" edge="1">
          <mxGeometry relative="1" as="geometry">
            <mxPoint x="1300" y="553" as="sourcePoint" />
            <Array as="points">
              <mxPoint x="1330" y="488" />
            </Array>
          </mxGeometry>
        </mxCell>
        <mxCell id="yQORpLr_msd9n2ilkDRE-104" value="Possui" style="rhombus;whiteSpace=wrap;html=1;fontSize=18;fillColor=#FFFFFF;" parent="1" vertex="1">
          <mxGeometry x="1290" y="143" width="80" height="80" as="geometry" />
        </mxCell>
        <mxCell id="yQORpLr_msd9n2ilkDRE-109" style="edgeStyle=none;rounded=0;orthogonalLoop=1;jettySize=auto;html=1;fontSize=18;endArrow=none;endFill=0;startArrow=none;startFill=0;entryX=0;entryY=0.5;entryDx=0;entryDy=0;exitX=1;exitY=1;exitDx=0;exitDy=0;" parent="1" source="m2zH_tmVmHCwzcI0nazo-14" target="yQORpLr_msd9n2ilkDRE-107" edge="1">
          <mxGeometry relative="1" as="geometry">
            <mxPoint x="1770" y="193" as="sourcePoint" />
            <mxPoint x="1770" y="193" as="targetPoint" />
            <Array as="points">
              <mxPoint x="1770" y="293" />
            </Array>
          </mxGeometry>
        </mxCell>
        <mxCell id="yQORpLr_msd9n2ilkDRE-110" style="edgeStyle=none;rounded=0;orthogonalLoop=1;jettySize=auto;html=1;fontSize=18;endArrow=none;endFill=0;startArrow=none;startFill=0;entryX=1;entryY=0.5;entryDx=0;entryDy=0;exitX=0;exitY=0.5;exitDx=0;exitDy=0;" parent="1" source="m2zH_tmVmHCwzcI0nazo-33" target="yQORpLr_msd9n2ilkDRE-107" edge="1">
          <mxGeometry relative="1" as="geometry">
            <mxPoint x="2280" y="513" as="sourcePoint" />
            <mxPoint x="2450" y="123" as="targetPoint" />
            <Array as="points">
              <mxPoint x="2590" y="428" />
              <mxPoint x="2590" y="293" />
            </Array>
          </mxGeometry>
        </mxCell>
        <mxCell id="yQORpLr_msd9n2ilkDRE-107" value="Faz" style="rhombus;whiteSpace=wrap;html=1;fontSize=18;fillColor=#FFFFFF;" parent="1" vertex="1">
          <mxGeometry x="2425" y="253" width="80" height="80" as="geometry" />
        </mxCell>
        <mxCell id="yQORpLr_msd9n2ilkDRE-111" style="edgeStyle=none;rounded=0;orthogonalLoop=1;jettySize=auto;html=1;entryX=0.5;entryY=1;entryDx=0;entryDy=0;fontSize=18;endArrow=none;endFill=0;startArrow=none;startFill=0;" parent="1" source="yQORpLr_msd9n2ilkDRE-20" target="yQORpLr_msd9n2ilkDRE-108" edge="1">
          <mxGeometry relative="1" as="geometry">
            <mxPoint x="1520" y="513" as="sourcePoint" />
          </mxGeometry>
        </mxCell>
        <mxCell id="yQORpLr_msd9n2ilkDRE-113" style="edgeStyle=none;rounded=0;orthogonalLoop=1;jettySize=auto;html=1;exitX=1;exitY=0;exitDx=0;exitDy=0;fontSize=18;endArrow=none;endFill=0;startArrow=none;startFill=0;entryX=0.5;entryY=0;entryDx=0;entryDy=0;" parent="1" source="IsGm7iIbSQp0N8kiTlz7-80" target="yQORpLr_msd9n2ilkDRE-108" edge="1">
          <mxGeometry relative="1" as="geometry">
            <mxPoint x="1780" y="313" as="targetPoint" />
            <Array as="points">
              <mxPoint x="1660" y="273" />
              <mxPoint x="1510" y="273" />
            </Array>
          </mxGeometry>
        </mxCell>
        <mxCell id="yQORpLr_msd9n2ilkDRE-108" value="Faz" style="rhombus;whiteSpace=wrap;html=1;fontSize=18;fillColor=#FFFFFF;" parent="1" vertex="1">
          <mxGeometry x="1470" y="333" width="80" height="80" as="geometry" />
        </mxCell>
        <mxCell id="yQORpLr_msd9n2ilkDRE-115" style="edgeStyle=none;rounded=0;orthogonalLoop=1;jettySize=auto;html=1;entryX=1;entryY=0.5;entryDx=0;entryDy=0;fontSize=18;endArrow=none;endFill=0;startArrow=none;startFill=0;exitX=0.5;exitY=1;exitDx=0;exitDy=0;" parent="1" edge="1">
          <mxGeometry relative="1" as="geometry">
            <mxPoint x="2872" y="458" as="sourcePoint" />
            <Array as="points">
              <mxPoint x="2872" y="1053" />
            </Array>
            <mxPoint x="1602" y="1053.0000000000005" as="targetPoint" />
          </mxGeometry>
        </mxCell>
        <mxCell id="yQORpLr_msd9n2ilkDRE-116" style="edgeStyle=none;rounded=0;orthogonalLoop=1;jettySize=auto;html=1;exitX=0.661;exitY=1.036;exitDx=0;exitDy=0;fontSize=18;endArrow=none;endFill=0;startArrow=none;startFill=0;exitPerimeter=0;entryX=0;entryY=0.5;entryDx=0;entryDy=0;" parent="1" source="yQORpLr_msd9n2ilkDRE-84" target="yQORpLr_msd9n2ilkDRE-114" edge="1">
          <mxGeometry relative="1" as="geometry">
            <mxPoint x="850" y="1013" as="targetPoint" />
            <Array as="points">
              <mxPoint x="1019" y="1053" />
            </Array>
          </mxGeometry>
        </mxCell>
        <mxCell id="yQORpLr_msd9n2ilkDRE-114" value="Realiza" style="rhombus;whiteSpace=wrap;html=1;fontSize=18;fillColor=#FFFFFF;" parent="1" vertex="1">
          <mxGeometry x="1520" y="1013" width="80" height="80" as="geometry" />
        </mxCell>
        <mxCell id="yQORpLr_msd9n2ilkDRE-119" style="edgeStyle=none;rounded=0;orthogonalLoop=1;jettySize=auto;html=1;entryX=0.5;entryY=1;entryDx=0;entryDy=0;fontSize=18;endArrow=none;endFill=0;startArrow=none;startFill=0;exitX=1;exitY=0.5;exitDx=0;exitDy=0;" parent="1" source="m2zH_tmVmHCwzcI0nazo-34" target="yQORpLr_msd9n2ilkDRE-117" edge="1">
          <mxGeometry relative="1" as="geometry">
            <mxPoint x="1560" y="923" as="sourcePoint" />
            <Array as="points">
              <mxPoint x="1510" y="938" />
            </Array>
          </mxGeometry>
        </mxCell>
        <mxCell id="yQORpLr_msd9n2ilkDRE-117" value="Assiste" style="rhombus;whiteSpace=wrap;html=1;fontSize=18;fillColor=#FFFFFF;" parent="1" vertex="1">
          <mxGeometry x="1470" y="753" width="80" height="80" as="geometry" />
        </mxCell>
        <mxCell id="yQORpLr_msd9n2ilkDRE-121" style="edgeStyle=none;rounded=0;orthogonalLoop=1;jettySize=auto;html=1;exitX=0;exitY=0.5;exitDx=0;exitDy=0;fontSize=18;endArrow=none;endFill=0;startArrow=none;startFill=0;entryX=1;entryY=0.5;entryDx=0;entryDy=0;" parent="1" source="m2zH_tmVmHCwzcI0nazo-34" target="yQORpLr_msd9n2ilkDRE-118" edge="1">
          <mxGeometry relative="1" as="geometry">
            <mxPoint x="1255" y="1008" as="targetPoint" />
          </mxGeometry>
        </mxCell>
        <mxCell id="yQORpLr_msd9n2ilkDRE-122" style="edgeStyle=none;rounded=0;orthogonalLoop=1;jettySize=auto;html=1;exitX=1;exitY=0.5;exitDx=0;exitDy=0;fontSize=18;endArrow=none;endFill=0;startArrow=none;startFill=0;entryX=0;entryY=0.5;entryDx=0;entryDy=0;" parent="1" source="yQORpLr_msd9n2ilkDRE-84" target="yQORpLr_msd9n2ilkDRE-118" edge="1">
          <mxGeometry relative="1" as="geometry">
            <mxPoint x="1170" y="663" as="targetPoint" />
            <Array as="points">
              <mxPoint x="1090" y="741" />
              <mxPoint x="1090" y="843" />
              <mxPoint x="1090" y="938" />
            </Array>
          </mxGeometry>
        </mxCell>
        <mxCell id="yQORpLr_msd9n2ilkDRE-118" value="Participa" style="rhombus;whiteSpace=wrap;html=1;fontSize=18;fillColor=#FFFFFF;" parent="1" vertex="1">
          <mxGeometry x="1115" y="898" width="100" height="80" as="geometry" />
        </mxCell>
        <mxCell id="yQORpLr_msd9n2ilkDRE-125" style="edgeStyle=none;rounded=0;orthogonalLoop=1;jettySize=auto;html=1;exitX=0.5;exitY=1;exitDx=0;exitDy=0;fontSize=18;endArrow=none;endFill=0;" parent="1" source="yQORpLr_msd9n2ilkDRE-124" target="m2zH_tmVmHCwzcI0nazo-34" edge="1">
          <mxGeometry relative="1" as="geometry" />
        </mxCell>
        <mxCell id="yQORpLr_msd9n2ilkDRE-124" value="" style="ellipse;whiteSpace=wrap;html=1;fontSize=18;fillColor=#000000;" parent="1" vertex="1">
          <mxGeometry x="1285" y="858" width="20" height="10" as="geometry" />
        </mxCell>
        <mxCell id="yQORpLr_msd9n2ilkDRE-126" value="Id" style="text;html=1;strokeColor=none;fillColor=none;align=center;verticalAlign=middle;whiteSpace=wrap;rounded=0;fontSize=18;" parent="1" vertex="1">
          <mxGeometry x="1290" y="848" width="60" height="30" as="geometry" />
        </mxCell>
        <mxCell id="yQORpLr_msd9n2ilkDRE-128" style="edgeStyle=none;rounded=0;orthogonalLoop=1;jettySize=auto;html=1;exitX=0.5;exitY=1;exitDx=0;exitDy=0;entryX=0.5;entryY=0;entryDx=0;entryDy=0;fontSize=19;endArrow=none;endFill=0;" parent="1" source="yQORpLr_msd9n2ilkDRE-127" target="m2zH_tmVmHCwzcI0nazo-34" edge="1">
          <mxGeometry relative="1" as="geometry" />
        </mxCell>
        <mxCell id="yQORpLr_msd9n2ilkDRE-127" value="nome" style="ellipse;whiteSpace=wrap;html=1;fontSize=18;fillColor=#FFFFFF;" parent="1" vertex="1">
          <mxGeometry x="1300" y="803" width="70" height="30" as="geometry" />
        </mxCell>
        <mxCell id="yQORpLr_msd9n2ilkDRE-130" style="edgeStyle=none;rounded=0;orthogonalLoop=1;jettySize=auto;html=1;exitX=0.5;exitY=1;exitDx=0;exitDy=0;entryX=0.875;entryY=0;entryDx=0;entryDy=0;entryPerimeter=0;fontSize=20;endArrow=none;endFill=0;" parent="1" source="yQORpLr_msd9n2ilkDRE-129" target="m2zH_tmVmHCwzcI0nazo-14" edge="1">
          <mxGeometry relative="1" as="geometry" />
        </mxCell>
        <mxCell id="yQORpLr_msd9n2ilkDRE-129" value="nome" style="ellipse;whiteSpace=wrap;html=1;fontSize=19;fillColor=#FFFFFF;" parent="1" vertex="1">
          <mxGeometry x="1750" y="68" width="80" height="45" as="geometry" />
        </mxCell>
        <mxCell id="IsGm7iIbSQp0N8kiTlz7-2" style="rounded=0;orthogonalLoop=1;jettySize=auto;html=1;exitX=0.5;exitY=1;exitDx=0;exitDy=0;entryX=0.911;entryY=-0.03;entryDx=0;entryDy=0;fontSize=15;startArrow=none;startFill=0;endArrow=none;endFill=0;entryPerimeter=0;" parent="1" source="IsGm7iIbSQp0N8kiTlz7-1" target="m2zH_tmVmHCwzcI0nazo-33" edge="1">
          <mxGeometry relative="1" as="geometry" />
        </mxCell>
        <mxCell id="IsGm7iIbSQp0N8kiTlz7-1" value="Resultado" style="ellipse;whiteSpace=wrap;html=1;fontSize=15;" parent="1" vertex="1">
          <mxGeometry x="2950" y="323" width="80" height="40" as="geometry" />
        </mxCell>
        <mxCell id="IsGm7iIbSQp0N8kiTlz7-4" style="edgeStyle=none;rounded=0;orthogonalLoop=1;jettySize=auto;html=1;exitX=0;exitY=1;exitDx=0;exitDy=0;entryX=1;entryY=0.5;entryDx=0;entryDy=0;fontSize=18;startArrow=none;startFill=0;endArrow=none;endFill=0;" parent="1" source="IsGm7iIbSQp0N8kiTlz7-3" target="yQORpLr_msd9n2ilkDRE-20" edge="1">
          <mxGeometry relative="1" as="geometry" />
        </mxCell>
        <mxCell id="IsGm7iIbSQp0N8kiTlz7-3" value="dataFim" style="ellipse;whiteSpace=wrap;html=1;fontSize=18;" parent="1" vertex="1">
          <mxGeometry x="1640" y="553" width="110" height="40" as="geometry" />
        </mxCell>
        <mxCell id="IsGm7iIbSQp0N8kiTlz7-11" style="edgeStyle=none;rounded=0;orthogonalLoop=1;jettySize=auto;html=1;exitX=0;exitY=0.5;exitDx=0;exitDy=0;entryX=1;entryY=0.5;entryDx=0;entryDy=0;fontSize=18;startArrow=none;startFill=0;endArrow=none;endFill=0;" parent="1" source="IsGm7iIbSQp0N8kiTlz7-5" target="IsGm7iIbSQp0N8kiTlz7-6" edge="1">
          <mxGeometry relative="1" as="geometry" />
        </mxCell>
        <mxCell id="IsGm7iIbSQp0N8kiTlz7-5" value="Vacina" style="rounded=1;whiteSpace=wrap;html=1;fontSize=18;" parent="1" vertex="1">
          <mxGeometry x="2090" y="168" width="120" height="60" as="geometry" />
        </mxCell>
        <mxCell id="IsGm7iIbSQp0N8kiTlz7-6" value="Toma" style="rhombus;whiteSpace=wrap;html=1;fontSize=18;" parent="1" vertex="1">
          <mxGeometry x="1890" y="158" width="80" height="80" as="geometry" />
        </mxCell>
        <mxCell id="IsGm7iIbSQp0N8kiTlz7-13" style="edgeStyle=none;rounded=0;orthogonalLoop=1;jettySize=auto;html=1;exitX=0.5;exitY=1;exitDx=0;exitDy=0;entryX=0.25;entryY=0;entryDx=0;entryDy=0;fontSize=18;startArrow=none;startFill=0;endArrow=none;endFill=0;" parent="1" source="IsGm7iIbSQp0N8kiTlz7-12" target="IsGm7iIbSQp0N8kiTlz7-5" edge="1">
          <mxGeometry relative="1" as="geometry" />
        </mxCell>
        <mxCell id="IsGm7iIbSQp0N8kiTlz7-12" value="" style="ellipse;whiteSpace=wrap;html=1;fontSize=18;fillColor=#000000;" parent="1" vertex="1">
          <mxGeometry x="2055" y="93" width="30" height="20" as="geometry" />
        </mxCell>
        <mxCell id="IsGm7iIbSQp0N8kiTlz7-15" value="Id" style="text;html=1;strokeColor=none;fillColor=none;align=center;verticalAlign=middle;whiteSpace=wrap;rounded=0;fontSize=18;" parent="1" vertex="1">
          <mxGeometry x="2010" y="83" width="60" height="30" as="geometry" />
        </mxCell>
        <mxCell id="IsGm7iIbSQp0N8kiTlz7-17" style="edgeStyle=none;rounded=0;orthogonalLoop=1;jettySize=auto;html=1;exitX=0.5;exitY=1;exitDx=0;exitDy=0;entryX=0.5;entryY=0;entryDx=0;entryDy=0;fontSize=18;startArrow=none;startFill=0;endArrow=none;endFill=0;" parent="1" source="IsGm7iIbSQp0N8kiTlz7-16" target="IsGm7iIbSQp0N8kiTlz7-5" edge="1">
          <mxGeometry relative="1" as="geometry" />
        </mxCell>
        <mxCell id="IsGm7iIbSQp0N8kiTlz7-16" value="nomeVacina" style="ellipse;whiteSpace=wrap;html=1;fontSize=18;fillColor=#FCFCFC;" parent="1" vertex="1">
          <mxGeometry x="2110" y="28" width="120" height="55" as="geometry" />
        </mxCell>
        <mxCell id="IsGm7iIbSQp0N8kiTlz7-20" style="edgeStyle=none;rounded=0;orthogonalLoop=1;jettySize=auto;html=1;exitX=0;exitY=1;exitDx=0;exitDy=0;entryX=0.75;entryY=0;entryDx=0;entryDy=0;fontSize=18;startArrow=none;startFill=0;endArrow=none;endFill=0;" parent="1" source="IsGm7iIbSQp0N8kiTlz7-18" target="IsGm7iIbSQp0N8kiTlz7-5" edge="1">
          <mxGeometry relative="1" as="geometry" />
        </mxCell>
        <mxCell id="IsGm7iIbSQp0N8kiTlz7-18" value="validadeEfeito" style="ellipse;whiteSpace=wrap;html=1;fontSize=18;fillColor=#FCFCFC;" parent="1" vertex="1">
          <mxGeometry x="2230" y="58" width="130" height="65" as="geometry" />
        </mxCell>
        <mxCell id="IsGm7iIbSQp0N8kiTlz7-19" style="edgeStyle=none;rounded=0;orthogonalLoop=1;jettySize=auto;html=1;entryX=0.5;entryY=1;entryDx=0;entryDy=0;fontSize=18;startArrow=none;startFill=0;endArrow=none;endFill=0;" parent="1" source="IsGm7iIbSQp0N8kiTlz7-18" target="IsGm7iIbSQp0N8kiTlz7-18" edge="1">
          <mxGeometry relative="1" as="geometry" />
        </mxCell>
        <mxCell id="IsGm7iIbSQp0N8kiTlz7-22" style="edgeStyle=none;rounded=0;orthogonalLoop=1;jettySize=auto;html=1;exitX=0.5;exitY=1;exitDx=0;exitDy=0;entryX=1;entryY=0.25;entryDx=0;entryDy=0;fontSize=24;startArrow=none;startFill=0;endArrow=none;endFill=0;" parent="1" source="IsGm7iIbSQp0N8kiTlz7-21" target="m2zH_tmVmHCwzcI0nazo-14" edge="1">
          <mxGeometry relative="1" as="geometry" />
        </mxCell>
        <mxCell id="IsGm7iIbSQp0N8kiTlz7-21" value="tipo" style="ellipse;whiteSpace=wrap;html=1;fontSize=24;fillColor=#FCFCFC;" parent="1" vertex="1">
          <mxGeometry x="1830" y="58" width="80" height="40" as="geometry" />
        </mxCell>
        <mxCell id="IsGm7iIbSQp0N8kiTlz7-35" value="" style="edgeStyle=none;rounded=0;orthogonalLoop=1;jettySize=auto;html=1;fontSize=21;startArrow=none;startFill=0;endArrow=none;endFill=0;" parent="1" source="IsGm7iIbSQp0N8kiTlz7-23" target="IsGm7iIbSQp0N8kiTlz7-34" edge="1">
          <mxGeometry relative="1" as="geometry" />
        </mxCell>
        <mxCell id="IsGm7iIbSQp0N8kiTlz7-56" value="" style="edgeStyle=none;rounded=0;orthogonalLoop=1;jettySize=auto;html=1;fontSize=21;startArrow=none;startFill=0;endArrow=none;endFill=0;" parent="1" source="IsGm7iIbSQp0N8kiTlz7-23" target="IsGm7iIbSQp0N8kiTlz7-55" edge="1">
          <mxGeometry relative="1" as="geometry" />
        </mxCell>
        <mxCell id="IsGm7iIbSQp0N8kiTlz7-58" value="" style="edgeStyle=none;rounded=0;orthogonalLoop=1;jettySize=auto;html=1;fontSize=21;startArrow=none;startFill=0;endArrow=none;endFill=0;" parent="1" source="IsGm7iIbSQp0N8kiTlz7-23" target="IsGm7iIbSQp0N8kiTlz7-57" edge="1">
          <mxGeometry relative="1" as="geometry" />
        </mxCell>
        <mxCell id="IsGm7iIbSQp0N8kiTlz7-23" value="Internação" style="rhombus;whiteSpace=wrap;html=1;fontSize=18;fillColor=#FCFCFC;" parent="1" vertex="1">
          <mxGeometry x="2215" y="413" width="130" height="80" as="geometry" />
        </mxCell>
        <mxCell id="IsGm7iIbSQp0N8kiTlz7-27" style="edgeStyle=none;rounded=0;orthogonalLoop=1;jettySize=auto;html=1;exitX=0.5;exitY=0;exitDx=0;exitDy=0;fontSize=18;startArrow=none;startFill=0;endArrow=none;endFill=0;entryX=0.5;entryY=1;entryDx=0;entryDy=0;" parent="1" source="IsGm7iIbSQp0N8kiTlz7-25" target="IsGm7iIbSQp0N8kiTlz7-23" edge="1">
          <mxGeometry relative="1" as="geometry">
            <mxPoint x="2295" y="563" as="targetPoint" />
          </mxGeometry>
        </mxCell>
        <mxCell id="IsGm7iIbSQp0N8kiTlz7-32" value="" style="edgeStyle=none;rounded=0;orthogonalLoop=1;jettySize=auto;html=1;fontSize=21;startArrow=none;startFill=0;endArrow=none;endFill=0;" parent="1" source="IsGm7iIbSQp0N8kiTlz7-25" target="IsGm7iIbSQp0N8kiTlz7-31" edge="1">
          <mxGeometry relative="1" as="geometry" />
        </mxCell>
        <mxCell id="IsGm7iIbSQp0N8kiTlz7-45" style="edgeStyle=none;rounded=0;orthogonalLoop=1;jettySize=auto;html=1;exitX=0.5;exitY=1;exitDx=0;exitDy=0;entryX=0.5;entryY=0;entryDx=0;entryDy=0;fontSize=21;startArrow=none;startFill=0;endArrow=none;endFill=0;" parent="1" source="IsGm7iIbSQp0N8kiTlz7-25" target="IsGm7iIbSQp0N8kiTlz7-43" edge="1">
          <mxGeometry relative="1" as="geometry" />
        </mxCell>
        <mxCell id="IsGm7iIbSQp0N8kiTlz7-71" style="edgeStyle=none;rounded=0;orthogonalLoop=1;jettySize=auto;html=1;exitX=0;exitY=0.5;exitDx=0;exitDy=0;entryX=1;entryY=0.5;entryDx=0;entryDy=0;fontSize=21;startArrow=none;startFill=0;endArrow=none;endFill=0;" parent="1" source="IsGm7iIbSQp0N8kiTlz7-25" target="IsGm7iIbSQp0N8kiTlz7-70" edge="1">
          <mxGeometry relative="1" as="geometry" />
        </mxCell>
        <mxCell id="IsGm7iIbSQp0N8kiTlz7-25" value="Baia" style="rounded=1;whiteSpace=wrap;html=1;fontSize=23;fillColor=#FCFCFC;" parent="1" vertex="1">
          <mxGeometry x="2210" y="653" width="140" height="60" as="geometry" />
        </mxCell>
        <mxCell id="IsGm7iIbSQp0N8kiTlz7-28" style="edgeStyle=none;rounded=0;orthogonalLoop=1;jettySize=auto;html=1;exitX=0;exitY=1;exitDx=0;exitDy=0;entryX=1;entryY=0;entryDx=0;entryDy=0;fontSize=18;startArrow=none;startFill=0;endArrow=none;endFill=0;" parent="1" source="IsGm7iIbSQp0N8kiTlz7-26" target="IsGm7iIbSQp0N8kiTlz7-25" edge="1">
          <mxGeometry relative="1" as="geometry" />
        </mxCell>
        <mxCell id="IsGm7iIbSQp0N8kiTlz7-26" value="numero" style="ellipse;whiteSpace=wrap;html=1;fontSize=18;fillColor=#FCFCFC;" parent="1" vertex="1">
          <mxGeometry x="2425" y="593" width="90" height="40" as="geometry" />
        </mxCell>
        <mxCell id="IsGm7iIbSQp0N8kiTlz7-30" style="edgeStyle=none;rounded=0;orthogonalLoop=1;jettySize=auto;html=1;exitX=0;exitY=1;exitDx=0;exitDy=0;entryX=0.75;entryY=0;entryDx=0;entryDy=0;fontSize=21;startArrow=none;startFill=0;endArrow=none;endFill=0;" parent="1" source="IsGm7iIbSQp0N8kiTlz7-29" target="IsGm7iIbSQp0N8kiTlz7-25" edge="1">
          <mxGeometry relative="1" as="geometry" />
        </mxCell>
        <mxCell id="IsGm7iIbSQp0N8kiTlz7-29" value="estado" style="ellipse;whiteSpace=wrap;html=1;fontSize=21;fillColor=#FCFCFC;" parent="1" vertex="1">
          <mxGeometry x="2360" y="540.5" width="85" height="45" as="geometry" />
        </mxCell>
        <mxCell id="IsGm7iIbSQp0N8kiTlz7-31" value="" style="ellipse;whiteSpace=wrap;html=1;fontSize=18;fillColor=#000000;rounded=1;" parent="1" vertex="1">
          <mxGeometry x="2450" y="668" width="37.5" height="20" as="geometry" />
        </mxCell>
        <mxCell id="IsGm7iIbSQp0N8kiTlz7-33" value="Id" style="text;html=1;strokeColor=none;fillColor=none;align=center;verticalAlign=middle;whiteSpace=wrap;rounded=0;fontSize=21;" parent="1" vertex="1">
          <mxGeometry x="2480" y="663" width="60" height="30" as="geometry" />
        </mxCell>
        <mxCell id="IsGm7iIbSQp0N8kiTlz7-34" value="dataEntrada" style="ellipse;whiteSpace=wrap;html=1;fontSize=18;fillColor=#FCFCFC;" parent="1" vertex="1">
          <mxGeometry x="2395" y="423" width="120" height="40" as="geometry" />
        </mxCell>
        <mxCell id="IsGm7iIbSQp0N8kiTlz7-39" style="edgeStyle=none;rounded=0;orthogonalLoop=1;jettySize=auto;html=1;exitX=0;exitY=0.5;exitDx=0;exitDy=0;entryX=1;entryY=0.25;entryDx=0;entryDy=0;fontSize=21;startArrow=none;startFill=0;endArrow=none;endFill=0;" parent="1" source="IsGm7iIbSQp0N8kiTlz7-36" target="IsGm7iIbSQp0N8kiTlz7-5" edge="1">
          <mxGeometry relative="1" as="geometry" />
        </mxCell>
        <mxCell id="IsGm7iIbSQp0N8kiTlz7-36" value="dataVacinacao" style="ellipse;whiteSpace=wrap;html=1;fontSize=21;fillColor=#FCFCFC;" parent="1" vertex="1">
          <mxGeometry x="2280" y="123" width="170" height="60" as="geometry" />
        </mxCell>
        <mxCell id="IsGm7iIbSQp0N8kiTlz7-44" style="edgeStyle=none;rounded=0;orthogonalLoop=1;jettySize=auto;html=1;exitX=0.5;exitY=0;exitDx=0;exitDy=0;entryX=0.5;entryY=1;entryDx=0;entryDy=0;fontSize=21;startArrow=none;startFill=0;endArrow=none;endFill=0;" parent="1" source="IsGm7iIbSQp0N8kiTlz7-42" target="IsGm7iIbSQp0N8kiTlz7-43" edge="1">
          <mxGeometry relative="1" as="geometry" />
        </mxCell>
        <mxCell id="IsGm7iIbSQp0N8kiTlz7-47" value="" style="edgeStyle=none;rounded=0;orthogonalLoop=1;jettySize=auto;html=1;fontSize=21;startArrow=none;startFill=0;endArrow=none;endFill=0;" parent="1" source="IsGm7iIbSQp0N8kiTlz7-42" target="IsGm7iIbSQp0N8kiTlz7-46" edge="1">
          <mxGeometry relative="1" as="geometry" />
        </mxCell>
        <mxCell id="IsGm7iIbSQp0N8kiTlz7-51" value="" style="edgeStyle=none;rounded=0;orthogonalLoop=1;jettySize=auto;html=1;fontSize=21;startArrow=none;startFill=0;endArrow=none;endFill=0;" parent="1" source="IsGm7iIbSQp0N8kiTlz7-42" target="IsGm7iIbSQp0N8kiTlz7-50" edge="1">
          <mxGeometry relative="1" as="geometry" />
        </mxCell>
        <mxCell id="IsGm7iIbSQp0N8kiTlz7-42" value="sector" style="rounded=1;whiteSpace=wrap;html=1;fontSize=21;fillColor=#FCFCFC;" parent="1" vertex="1">
          <mxGeometry x="2222.5" y="963" width="120" height="60" as="geometry" />
        </mxCell>
        <mxCell id="IsGm7iIbSQp0N8kiTlz7-43" value="Pertence" style="rhombus;whiteSpace=wrap;html=1;fontSize=21;fillColor=#FCFCFC;" parent="1" vertex="1">
          <mxGeometry x="2222.5" y="793" width="115" height="80" as="geometry" />
        </mxCell>
        <mxCell id="IsGm7iIbSQp0N8kiTlz7-46" value="designacao" style="ellipse;whiteSpace=wrap;html=1;fontSize=21;fillColor=#FCFCFC;rounded=1;" parent="1" vertex="1">
          <mxGeometry x="2422.5" y="963" width="127.5" height="40" as="geometry" />
        </mxCell>
        <mxCell id="IsGm7iIbSQp0N8kiTlz7-50" value="" style="ellipse;whiteSpace=wrap;html=1;fontSize=21;fillColor=#000000;rounded=1;" parent="1" vertex="1">
          <mxGeometry x="2368.75" y="903" width="32.5" height="20" as="geometry" />
        </mxCell>
        <mxCell id="IsGm7iIbSQp0N8kiTlz7-52" value="Id" style="text;html=1;strokeColor=none;fillColor=none;align=center;verticalAlign=middle;whiteSpace=wrap;rounded=0;fontSize=21;" parent="1" vertex="1">
          <mxGeometry x="2395" y="893" width="60" height="30" as="geometry" />
        </mxCell>
        <mxCell id="IsGm7iIbSQp0N8kiTlz7-55" value="dataSaida" style="ellipse;whiteSpace=wrap;html=1;fontSize=18;fillColor=#FCFCFC;" parent="1" vertex="1">
          <mxGeometry x="2315" y="373" width="120" height="40" as="geometry" />
        </mxCell>
        <mxCell id="IsGm7iIbSQp0N8kiTlz7-57" value="estado" style="ellipse;whiteSpace=wrap;html=1;fontSize=18;fillColor=#FCFCFC;" parent="1" vertex="1">
          <mxGeometry x="2180" y="343" width="120" height="40" as="geometry" />
        </mxCell>
        <mxCell id="IsGm7iIbSQp0N8kiTlz7-63" value="" style="edgeStyle=none;rounded=0;orthogonalLoop=1;jettySize=auto;html=1;fontSize=21;startArrow=none;startFill=0;endArrow=none;endFill=0;" parent="1" source="IsGm7iIbSQp0N8kiTlz7-59" target="IsGm7iIbSQp0N8kiTlz7-62" edge="1">
          <mxGeometry relative="1" as="geometry" />
        </mxCell>
        <mxCell id="IsGm7iIbSQp0N8kiTlz7-65" value="" style="edgeStyle=none;rounded=0;orthogonalLoop=1;jettySize=auto;html=1;fontSize=21;startArrow=none;startFill=0;endArrow=none;endFill=0;" parent="1" source="IsGm7iIbSQp0N8kiTlz7-59" target="IsGm7iIbSQp0N8kiTlz7-64" edge="1">
          <mxGeometry relative="1" as="geometry" />
        </mxCell>
        <mxCell id="IsGm7iIbSQp0N8kiTlz7-68" style="edgeStyle=none;rounded=0;orthogonalLoop=1;jettySize=auto;html=1;exitX=0.5;exitY=1;exitDx=0;exitDy=0;entryX=0.5;entryY=0;entryDx=0;entryDy=0;fontSize=21;startArrow=none;startFill=0;endArrow=none;endFill=0;" parent="1" source="IsGm7iIbSQp0N8kiTlz7-59" target="IsGm7iIbSQp0N8kiTlz7-67" edge="1">
          <mxGeometry relative="1" as="geometry" />
        </mxCell>
        <mxCell id="IsGm7iIbSQp0N8kiTlz7-72" style="edgeStyle=none;rounded=0;orthogonalLoop=1;jettySize=auto;html=1;exitX=1;exitY=0.5;exitDx=0;exitDy=0;entryX=0.5;entryY=1;entryDx=0;entryDy=0;fontSize=21;startArrow=none;startFill=0;endArrow=none;endFill=0;" parent="1" source="IsGm7iIbSQp0N8kiTlz7-59" target="IsGm7iIbSQp0N8kiTlz7-70" edge="1">
          <mxGeometry relative="1" as="geometry">
            <Array as="points">
              <mxPoint x="2030" y="793" />
            </Array>
          </mxGeometry>
        </mxCell>
        <mxCell id="IsGm7iIbSQp0N8kiTlz7-59" value="areaInternacao" style="rounded=1;whiteSpace=wrap;html=1;fontSize=21;fillColor=#FCFCFC;" parent="1" vertex="1">
          <mxGeometry x="1715" y="763" width="150" height="60" as="geometry" />
        </mxCell>
        <mxCell id="IsGm7iIbSQp0N8kiTlz7-62" value="designacao" style="ellipse;whiteSpace=wrap;html=1;fontSize=21;fillColor=#FCFCFC;rounded=1;" parent="1" vertex="1">
          <mxGeometry x="1730" y="653" width="120" height="50" as="geometry" />
        </mxCell>
        <mxCell id="IsGm7iIbSQp0N8kiTlz7-64" value="" style="ellipse;whiteSpace=wrap;html=1;fontSize=21;fillColor=#030303;rounded=1;" parent="1" vertex="1">
          <mxGeometry x="1680" y="713" width="31.5" height="20" as="geometry" />
        </mxCell>
        <mxCell id="IsGm7iIbSQp0N8kiTlz7-66" value="Id" style="text;html=1;strokeColor=none;fillColor=none;align=center;verticalAlign=middle;whiteSpace=wrap;rounded=0;fontSize=21;" parent="1" vertex="1">
          <mxGeometry x="1630" y="698" width="60" height="30" as="geometry" />
        </mxCell>
        <mxCell id="IsGm7iIbSQp0N8kiTlz7-67" value="pertence" style="rhombus;whiteSpace=wrap;html=1;fontSize=21;fillColor=#FCFCFC;" parent="1" vertex="1">
          <mxGeometry x="1735" y="908" width="110" height="80" as="geometry" />
        </mxCell>
        <mxCell id="IsGm7iIbSQp0N8kiTlz7-70" value="pertence" style="rhombus;whiteSpace=wrap;html=1;fontSize=21;fillColor=#FCFCFC;" parent="1" vertex="1">
          <mxGeometry x="1975" y="643" width="110" height="80" as="geometry" />
        </mxCell>
        <mxCell id="IsGm7iIbSQp0N8kiTlz7-73" value="(n,n)" style="text;html=1;strokeColor=none;fillColor=none;align=center;verticalAlign=middle;whiteSpace=wrap;rounded=0;fontSize=18;" parent="1" vertex="1">
          <mxGeometry x="1055" y="713" width="60" height="30" as="geometry" />
        </mxCell>
        <mxCell id="IsGm7iIbSQp0N8kiTlz7-74" value="(1,n)" style="text;html=1;strokeColor=none;fillColor=none;align=center;verticalAlign=middle;whiteSpace=wrap;rounded=0;fontSize=18;" parent="1" vertex="1">
          <mxGeometry x="1260" y="908" width="60" height="30" as="geometry" />
        </mxCell>
        <mxCell id="IsGm7iIbSQp0N8kiTlz7-75" value="(1,1)" style="text;html=1;strokeColor=none;fillColor=none;align=center;verticalAlign=middle;whiteSpace=wrap;rounded=0;fontSize=18;" parent="1" vertex="1">
          <mxGeometry x="1215" y="458" width="60" height="30" as="geometry" />
        </mxCell>
        <mxCell id="IsGm7iIbSQp0N8kiTlz7-76" value="(1,n)" style="text;html=1;strokeColor=none;fillColor=none;align=center;verticalAlign=middle;whiteSpace=wrap;rounded=0;fontSize=18;" parent="1" vertex="1">
          <mxGeometry x="1550" y="153" width="60" height="30" as="geometry" />
        </mxCell>
        <mxCell id="IsGm7iIbSQp0N8kiTlz7-77" value="(1,1)" style="text;html=1;strokeColor=none;fillColor=none;align=center;verticalAlign=middle;whiteSpace=wrap;rounded=0;fontSize=18;" parent="1" vertex="1">
          <mxGeometry x="1422" y="908" width="60" height="30" as="geometry" />
        </mxCell>
        <mxCell id="IsGm7iIbSQp0N8kiTlz7-78" value="(1,n)" style="text;html=1;strokeColor=none;fillColor=none;align=center;verticalAlign=middle;whiteSpace=wrap;rounded=0;fontSize=18;" parent="1" vertex="1">
          <mxGeometry x="1450" y="638" width="60" height="30" as="geometry" />
        </mxCell>
        <mxCell id="IsGm7iIbSQp0N8kiTlz7-79" value="(1,n)" style="text;html=1;strokeColor=none;fillColor=none;align=center;verticalAlign=middle;whiteSpace=wrap;rounded=0;fontSize=18;" parent="1" vertex="1">
          <mxGeometry x="1460" y="540.5" width="60" height="30" as="geometry" />
        </mxCell>
        <mxCell id="IsGm7iIbSQp0N8kiTlz7-80" value="(1,1)" style="text;html=1;strokeColor=none;fillColor=none;align=center;verticalAlign=middle;whiteSpace=wrap;rounded=0;fontSize=18;" parent="1" vertex="1">
          <mxGeometry x="1600" y="213" width="60" height="30" as="geometry" />
        </mxCell>
        <mxCell id="IsGm7iIbSQp0N8kiTlz7-81" value="(1,1)" style="text;html=1;strokeColor=none;fillColor=none;align=center;verticalAlign=middle;whiteSpace=wrap;rounded=0;fontSize=18;" parent="1" vertex="1">
          <mxGeometry x="1660" y="213" width="60" height="30" as="geometry" />
        </mxCell>
        <mxCell id="IsGm7iIbSQp0N8kiTlz7-82" value="(1,1)" style="text;html=1;strokeColor=none;fillColor=none;align=center;verticalAlign=middle;whiteSpace=wrap;rounded=0;fontSize=18;" parent="1" vertex="1">
          <mxGeometry x="1770" y="168" width="60" height="30" as="geometry" />
        </mxCell>
        <mxCell id="IsGm7iIbSQp0N8kiTlz7-83" value="(1,n)" style="text;html=1;strokeColor=none;fillColor=none;align=center;verticalAlign=middle;whiteSpace=wrap;rounded=0;fontSize=18;" parent="1" vertex="1">
          <mxGeometry x="2030" y="168" width="60" height="30" as="geometry" />
        </mxCell>
        <mxCell id="IsGm7iIbSQp0N8kiTlz7-84" value="(1,1)" style="text;html=1;strokeColor=none;fillColor=none;align=center;verticalAlign=middle;whiteSpace=wrap;rounded=0;fontSize=18;" parent="1" vertex="1">
          <mxGeometry x="1715" y="213" width="60" height="30" as="geometry" />
        </mxCell>
        <mxCell id="IsGm7iIbSQp0N8kiTlz7-87" value="(1,n)" style="text;html=1;strokeColor=none;fillColor=none;align=center;verticalAlign=middle;whiteSpace=wrap;rounded=0;fontSize=18;" parent="1" vertex="1">
          <mxGeometry x="2750" y="393" width="60" height="30" as="geometry" />
        </mxCell>
        <mxCell id="IsGm7iIbSQp0N8kiTlz7-88" value="(1,n)" style="text;html=1;strokeColor=none;fillColor=none;align=center;verticalAlign=middle;whiteSpace=wrap;rounded=0;fontSize=18;" parent="1" vertex="1">
          <mxGeometry x="2805" y="463" width="60" height="30" as="geometry" />
        </mxCell>
        <mxCell id="IsGm7iIbSQp0N8kiTlz7-89" value="(1,1)" style="text;html=1;strokeColor=none;fillColor=none;align=center;verticalAlign=middle;whiteSpace=wrap;rounded=0;fontSize=18;" parent="1" vertex="1">
          <mxGeometry x="2222.5" y="623" width="60" height="30" as="geometry" />
        </mxCell>
        <mxCell id="IsGm7iIbSQp0N8kiTlz7-90" value="(1,n)" style="text;html=1;strokeColor=none;fillColor=none;align=center;verticalAlign=middle;whiteSpace=wrap;rounded=0;fontSize=18;" parent="1" vertex="1">
          <mxGeometry x="2156" y="653" width="60" height="30" as="geometry" />
        </mxCell>
        <mxCell id="IsGm7iIbSQp0N8kiTlz7-91" value="(1,1)" style="text;html=1;strokeColor=none;fillColor=none;align=center;verticalAlign=middle;whiteSpace=wrap;rounded=0;fontSize=18;" parent="1" vertex="1">
          <mxGeometry x="1860" y="765" width="60" height="30" as="geometry" />
        </mxCell>
        <mxCell id="IsGm7iIbSQp0N8kiTlz7-93" value="(1,n)" style="text;html=1;strokeColor=none;fillColor=none;align=center;verticalAlign=middle;whiteSpace=wrap;rounded=0;fontSize=18;" parent="1" vertex="1">
          <mxGeometry x="2222.5" y="713" width="60" height="30" as="geometry" />
        </mxCell>
        <mxCell id="IsGm7iIbSQp0N8kiTlz7-94" value="(1,1)" style="text;html=1;strokeColor=none;fillColor=none;align=center;verticalAlign=middle;whiteSpace=wrap;rounded=0;fontSize=18;" parent="1" vertex="1">
          <mxGeometry x="2230" y="933" width="60" height="30" as="geometry" />
        </mxCell>
        <mxCell id="IsGm7iIbSQp0N8kiTlz7-95" value="(1,1)" style="text;html=1;strokeColor=none;fillColor=none;align=center;verticalAlign=middle;whiteSpace=wrap;rounded=0;fontSize=18;" parent="1" vertex="1">
          <mxGeometry x="964.61" y="773" width="60" height="30" as="geometry" />
        </mxCell>
        <mxCell id="KB_mV7S6W3KgOUlaxx0e-9" value="" style="edgeStyle=none;rounded=0;orthogonalLoop=1;jettySize=auto;html=1;fontSize=19;endArrow=none;endFill=0;" parent="1" source="KB_mV7S6W3KgOUlaxx0e-3" target="KB_mV7S6W3KgOUlaxx0e-8" edge="1">
          <mxGeometry relative="1" as="geometry" />
        </mxCell>
        <mxCell id="KB_mV7S6W3KgOUlaxx0e-12" value="" style="edgeStyle=none;rounded=0;orthogonalLoop=1;jettySize=auto;html=1;fontSize=15;endArrow=none;endFill=0;" parent="1" source="KB_mV7S6W3KgOUlaxx0e-3" target="KB_mV7S6W3KgOUlaxx0e-11" edge="1">
          <mxGeometry relative="1" as="geometry" />
        </mxCell>
        <mxCell id="KB_mV7S6W3KgOUlaxx0e-18" style="edgeStyle=none;rounded=0;orthogonalLoop=1;jettySize=auto;html=1;exitX=1;exitY=0.5;exitDx=0;exitDy=0;entryX=0;entryY=0.5;entryDx=0;entryDy=0;fontSize=15;endArrow=none;endFill=0;" parent="1" source="KB_mV7S6W3KgOUlaxx0e-3" target="KB_mV7S6W3KgOUlaxx0e-16" edge="1">
          <mxGeometry relative="1" as="geometry" />
        </mxCell>
        <mxCell id="KB_mV7S6W3KgOUlaxx0e-22" value="" style="edgeStyle=none;rounded=0;orthogonalLoop=1;jettySize=auto;html=1;fontSize=15;endArrow=none;endFill=0;" parent="1" source="KB_mV7S6W3KgOUlaxx0e-3" target="KB_mV7S6W3KgOUlaxx0e-21" edge="1">
          <mxGeometry relative="1" as="geometry" />
        </mxCell>
        <mxCell id="KB_mV7S6W3KgOUlaxx0e-3" value="Utilizador" style="rounded=1;whiteSpace=wrap;html=1;fontSize=19;" parent="1" vertex="1">
          <mxGeometry x="305" y="480.5" width="120" height="60" as="geometry" />
        </mxCell>
        <mxCell id="KB_mV7S6W3KgOUlaxx0e-7" value="" style="edgeStyle=none;rounded=0;orthogonalLoop=1;jettySize=auto;html=1;fontSize=19;endArrow=none;endFill=0;startArrow=none;" parent="1" source="KB_mV7S6W3KgOUlaxx0e-4" target="KB_mV7S6W3KgOUlaxx0e-3" edge="1">
          <mxGeometry relative="1" as="geometry">
            <mxPoint x="355" y="390" as="sourcePoint" />
          </mxGeometry>
        </mxCell>
        <mxCell id="KB_mV7S6W3KgOUlaxx0e-8" value="password" style="ellipse;whiteSpace=wrap;html=1;fontSize=15;rounded=1;" parent="1" vertex="1">
          <mxGeometry x="350" y="373" width="90" height="37" as="geometry" />
        </mxCell>
        <mxCell id="KB_mV7S6W3KgOUlaxx0e-4" value="nomeUtilizador" style="ellipse;whiteSpace=wrap;html=1;fontSize=15;rounded=1;" parent="1" vertex="1">
          <mxGeometry x="250" y="346" width="110" height="37" as="geometry" />
        </mxCell>
        <mxCell id="KB_mV7S6W3KgOUlaxx0e-11" value="" style="ellipse;whiteSpace=wrap;html=1;fontSize=19;rounded=1;fillColor=#0D0D0D;" parent="1" vertex="1">
          <mxGeometry x="270" y="423.5" width="25" height="9.5" as="geometry" />
        </mxCell>
        <mxCell id="KB_mV7S6W3KgOUlaxx0e-13" value="Id" style="text;html=1;strokeColor=none;fillColor=none;align=center;verticalAlign=middle;whiteSpace=wrap;rounded=0;fontSize=15;" parent="1" vertex="1">
          <mxGeometry x="230" y="403" width="60" height="30" as="geometry" />
        </mxCell>
        <mxCell id="KB_mV7S6W3KgOUlaxx0e-16" value="Possui" style="rhombus;whiteSpace=wrap;html=1;fontSize=15;fillColor=#F5F5F5;" parent="1" vertex="1">
          <mxGeometry x="600" y="470.5" width="80" height="80" as="geometry" />
        </mxCell>
        <mxCell id="KB_mV7S6W3KgOUlaxx0e-19" value="(1,1)" style="text;html=1;strokeColor=none;fillColor=none;align=center;verticalAlign=middle;whiteSpace=wrap;rounded=0;fontSize=15;" parent="1" vertex="1">
          <mxGeometry x="810" y="480.5" width="60" height="30" as="geometry" />
        </mxCell>
        <mxCell id="KB_mV7S6W3KgOUlaxx0e-20" value="(0,1)" style="text;html=1;strokeColor=none;fillColor=none;align=center;verticalAlign=middle;whiteSpace=wrap;rounded=0;fontSize=15;" parent="1" vertex="1">
          <mxGeometry x="415" y="480.5" width="60" height="30" as="geometry" />
        </mxCell>
        <mxCell id="KB_mV7S6W3KgOUlaxx0e-21" value="previlegio" style="ellipse;whiteSpace=wrap;html=1;fontSize=15;rounded=1;" parent="1" vertex="1">
          <mxGeometry x="440" y="408" width="80" height="40" as="geometry" />
        </mxCell>
      </root>
    </mxGraphModel>
  </diagram>
  <diagram id="92ZSzt73axI3UxPXkOCI" name="Mapeamento">
    <mxGraphModel dx="868" dy="465" grid="1" gridSize="10" guides="1" tooltips="1" connect="1" arrows="1" fold="1" page="1" pageScale="1" pageWidth="827" pageHeight="1169" math="0" shadow="0">
      <root>
        <mxCell id="0" />
        <mxCell id="1" parent="0" />
        <mxCell id="gWf5Jpj1cNQTGwzoy_Wq-1" value="&lt;b&gt;Utilizador&lt;/b&gt; ( &lt;u&gt;Id&lt;/u&gt;, nomeUtilizador, password, previlegio,#id_funcionario)" style="text;html=1;strokeColor=none;fillColor=none;align=center;verticalAlign=middle;whiteSpace=wrap;rounded=0;fontSize=15;" parent="1" vertex="1">
          <mxGeometry x="20" y="10" width="450" height="30" as="geometry" />
        </mxCell>
        <mxCell id="gWf5Jpj1cNQTGwzoy_Wq-2" value="&lt;b&gt;Funcionario&lt;/b&gt; ( &lt;u&gt;Id_funcionario&lt;/u&gt;, nome, endereco(avenida,rua,bairo),telefone,salario)" style="text;html=1;strokeColor=none;fillColor=none;align=center;verticalAlign=middle;whiteSpace=wrap;rounded=0;fontSize=15;" parent="1" vertex="1">
          <mxGeometry x="20" y="40" width="540" height="30" as="geometry" />
        </mxCell>
        <mxCell id="gWf5Jpj1cNQTGwzoy_Wq-3" value="&lt;b&gt;Dono&lt;/b&gt; ( &lt;u&gt;Id_dono&lt;/u&gt;, nome, telefone,endereco(avenida,rua,bairo),telefone)" style="text;html=1;strokeColor=none;fillColor=none;align=center;verticalAlign=middle;whiteSpace=wrap;rounded=0;fontSize=15;" parent="1" vertex="1">
          <mxGeometry x="20" y="130" width="460" height="30" as="geometry" />
        </mxCell>
        <mxCell id="gWf5Jpj1cNQTGwzoy_Wq-4" value="&lt;b&gt;Recepcionista&lt;/b&gt; ( &lt;u&gt;Id_recepcionista&lt;/u&gt;,#id_funcionario)" style="text;html=1;strokeColor=none;fillColor=none;align=center;verticalAlign=middle;whiteSpace=wrap;rounded=0;fontSize=15;" parent="1" vertex="1">
          <mxGeometry x="20" y="70" width="330" height="30" as="geometry" />
        </mxCell>
        <mxCell id="gWf5Jpj1cNQTGwzoy_Wq-5" value="&lt;b&gt;Veterinario&lt;/b&gt; ( &lt;u&gt;Id_veterinario&lt;/u&gt;, especialidade,#id_funcionario)" style="text;html=1;strokeColor=none;fillColor=none;align=center;verticalAlign=middle;whiteSpace=wrap;rounded=0;fontSize=15;" parent="1" vertex="1">
          <mxGeometry x="20" y="100" width="384" height="30" as="geometry" />
        </mxCell>
        <mxCell id="gWf5Jpj1cNQTGwzoy_Wq-6" value="&lt;b&gt;Equipe&lt;/b&gt; ( &lt;u&gt;Id_equipe&lt;/u&gt;, nome, #id_areaInternacao)" style="text;html=1;strokeColor=none;fillColor=none;align=center;verticalAlign=middle;whiteSpace=wrap;rounded=0;fontSize=15;" parent="1" vertex="1">
          <mxGeometry x="20" y="160" width="310" height="30" as="geometry" />
        </mxCell>
        <mxCell id="gWf5Jpj1cNQTGwzoy_Wq-7" value="&lt;b&gt;AreaInternacao&lt;/b&gt; ( &lt;u&gt;Id_areaInternacao&lt;/u&gt;, designacao)" style="text;html=1;strokeColor=none;fillColor=none;align=center;verticalAlign=middle;whiteSpace=wrap;rounded=0;fontSize=15;" parent="1" vertex="1">
          <mxGeometry x="20" y="190" width="330" height="30" as="geometry" />
        </mxCell>
        <mxCell id="gWf5Jpj1cNQTGwzoy_Wq-8" value="&lt;b&gt;Baia&lt;/b&gt; ( &lt;u&gt;Id_baia&lt;/u&gt;, numero, estado, #id_sector)" style="text;html=1;strokeColor=none;fillColor=none;align=center;verticalAlign=middle;whiteSpace=wrap;rounded=0;fontSize=15;" parent="1" vertex="1">
          <mxGeometry x="20" y="220" width="290" height="30" as="geometry" />
        </mxCell>
        <mxCell id="gWf5Jpj1cNQTGwzoy_Wq-9" value="&lt;b&gt;Sector&lt;/b&gt; ( &lt;u&gt;Id_sector&lt;/u&gt;,designacao)" style="text;html=1;strokeColor=none;fillColor=none;align=center;verticalAlign=middle;whiteSpace=wrap;rounded=0;fontSize=15;" parent="1" vertex="1">
          <mxGeometry x="20" y="250" width="210" height="30" as="geometry" />
        </mxCell>
        <mxCell id="gWf5Jpj1cNQTGwzoy_Wq-10" value="&lt;b&gt;Animal&lt;/b&gt; ( &lt;u&gt;Id_animal&lt;/u&gt;, nome, alergia, tipo, #Id_dono )" style="text;html=1;strokeColor=none;fillColor=none;align=center;verticalAlign=middle;whiteSpace=wrap;rounded=0;fontSize=15;" parent="1" vertex="1">
          <mxGeometry x="20" y="280" width="330" height="30" as="geometry" />
        </mxCell>
        <mxCell id="gWf5Jpj1cNQTGwzoy_Wq-11" value="&lt;b&gt;Tratamento&lt;/b&gt; ( &lt;u&gt;Id_tratamento&lt;/u&gt;, descricao, dataInicio,dataFim, #Id_equipe,#Id_animal )" style="text;html=1;strokeColor=none;fillColor=none;align=center;verticalAlign=middle;whiteSpace=wrap;rounded=0;fontSize=15;" parent="1" vertex="1">
          <mxGeometry x="20" y="310" width="550" height="30" as="geometry" />
        </mxCell>
        <mxCell id="gWf5Jpj1cNQTGwzoy_Wq-12" value="&lt;b&gt;Vacina&lt;/b&gt; ( &lt;u&gt;Id_vacina&lt;/u&gt;, nomeVacina, validadeEfeito, dataVacinacao #Id_animal )" style="text;html=1;strokeColor=none;fillColor=none;align=center;verticalAlign=middle;whiteSpace=wrap;rounded=0;fontSize=15;" parent="1" vertex="1">
          <mxGeometry x="20" y="340" width="500" height="30" as="geometry" />
        </mxCell>
        <mxCell id="gWf5Jpj1cNQTGwzoy_Wq-13" value="&lt;b&gt;Exame&lt;/b&gt; ( &lt;u&gt;Id_exame&lt;/u&gt;, nome, data, resultado, #Id_animal, #Id_veterinario )" style="text;html=1;strokeColor=none;fillColor=none;align=center;verticalAlign=middle;whiteSpace=wrap;rounded=0;fontSize=15;" parent="1" vertex="1">
          <mxGeometry x="20" y="370" width="470" height="30" as="geometry" />
        </mxCell>
        <mxCell id="gWf5Jpj1cNQTGwzoy_Wq-14" value="&lt;b&gt;Internação&lt;/b&gt; ( &lt;u&gt;Id_internacao&lt;/u&gt;, estado, dataEntrada, dataSaida, #Id_animal, #Id_baia )" style="text;html=1;strokeColor=none;fillColor=none;align=center;verticalAlign=middle;whiteSpace=wrap;rounded=0;fontSize=15;" parent="1" vertex="1">
          <mxGeometry x="20" y="400" width="540" height="30" as="geometry" />
        </mxCell>
      </root>
    </mxGraphModel>
  </diagram>
  <diagram id="poyam2bTx1zfcL1wqPr9" name="Normalização">
    <mxGraphModel dx="868" dy="465" grid="1" gridSize="10" guides="1" tooltips="1" connect="1" arrows="1" fold="1" page="1" pageScale="1" pageWidth="827" pageHeight="1169" math="0" shadow="0">
      <root>
        <mxCell id="0" />
        <mxCell id="1" parent="0" />
        <mxCell id="sdLNeCAJGCO7a3UpZfQ9-1" value="&lt;b&gt;Utilizador&lt;/b&gt; ( &lt;u&gt;Id&lt;/u&gt;, nomeUtilizador, password, previlegio,#id_funcionario)" style="text;html=1;strokeColor=none;fillColor=none;align=center;verticalAlign=middle;whiteSpace=wrap;rounded=0;fontSize=15;" parent="1" vertex="1">
          <mxGeometry x="20" y="10" width="450" height="30" as="geometry" />
        </mxCell>
        <mxCell id="sdLNeCAJGCO7a3UpZfQ9-2" value="&lt;b&gt;Funcionario&lt;/b&gt; ( &lt;u&gt;Id_funcionario&lt;/u&gt;, salario,#id_pessoa)" style="text;html=1;strokeColor=none;fillColor=none;align=center;verticalAlign=middle;whiteSpace=wrap;rounded=0;fontSize=15;" parent="1" vertex="1">
          <mxGeometry x="20" y="40" width="330" height="30" as="geometry" />
        </mxCell>
        <mxCell id="sdLNeCAJGCO7a3UpZfQ9-3" value="&lt;b&gt;Dono&lt;/b&gt; ( &lt;u&gt;Id_dono&lt;/u&gt;, #id_pessoa)" style="text;html=1;strokeColor=none;fillColor=none;align=center;verticalAlign=middle;whiteSpace=wrap;rounded=0;fontSize=15;" parent="1" vertex="1">
          <mxGeometry x="20" y="224" width="200" height="30" as="geometry" />
        </mxCell>
        <mxCell id="sdLNeCAJGCO7a3UpZfQ9-4" value="&lt;b&gt;Endereço&lt;/b&gt; ( &lt;u&gt;#id_pessoa, avenida&lt;/u&gt;, rua, bairro)" style="text;html=1;strokeColor=none;fillColor=none;align=center;verticalAlign=middle;whiteSpace=wrap;rounded=0;fontSize=15;" parent="1" vertex="1">
          <mxGeometry x="20" y="100" width="300" height="30" as="geometry" />
        </mxCell>
        <mxCell id="sdLNeCAJGCO7a3UpZfQ9-5" value="&lt;b&gt;Veterinario&lt;/b&gt; ( &lt;u&gt;Id_veterinario&lt;/u&gt;, especialidade,#id_funcionario)" style="text;html=1;strokeColor=none;fillColor=none;align=center;verticalAlign=middle;whiteSpace=wrap;rounded=0;fontSize=15;" parent="1" vertex="1">
          <mxGeometry x="20" y="194" width="384" height="30" as="geometry" />
        </mxCell>
        <mxCell id="sdLNeCAJGCO7a3UpZfQ9-6" value="&lt;b&gt;Equipe&lt;/b&gt; ( &lt;u&gt;Id_equipe&lt;/u&gt;, nome, #id_areaInternacao)" style="text;html=1;strokeColor=none;fillColor=none;align=center;verticalAlign=middle;whiteSpace=wrap;rounded=0;fontSize=15;" parent="1" vertex="1">
          <mxGeometry x="20" y="254" width="310" height="30" as="geometry" />
        </mxCell>
        <mxCell id="sdLNeCAJGCO7a3UpZfQ9-7" value="&lt;b&gt;AreaInternacao&lt;/b&gt; ( &lt;u&gt;Id_areaInternacao&lt;/u&gt;, designacao)" style="text;html=1;strokeColor=none;fillColor=none;align=center;verticalAlign=middle;whiteSpace=wrap;rounded=0;fontSize=15;" parent="1" vertex="1">
          <mxGeometry x="20" y="284" width="330" height="30" as="geometry" />
        </mxCell>
        <mxCell id="sdLNeCAJGCO7a3UpZfQ9-8" value="&lt;b&gt;Baia&lt;/b&gt; ( &lt;u&gt;Id_baia&lt;/u&gt;, numero, estado, #id_sector)" style="text;html=1;strokeColor=none;fillColor=none;align=center;verticalAlign=middle;whiteSpace=wrap;rounded=0;fontSize=15;" parent="1" vertex="1">
          <mxGeometry x="20" y="314" width="290" height="30" as="geometry" />
        </mxCell>
        <mxCell id="sdLNeCAJGCO7a3UpZfQ9-9" value="&lt;b&gt;Sector&lt;/b&gt; ( &lt;u&gt;Id_sector&lt;/u&gt;,designacao)" style="text;html=1;strokeColor=none;fillColor=none;align=center;verticalAlign=middle;whiteSpace=wrap;rounded=0;fontSize=15;" parent="1" vertex="1">
          <mxGeometry x="20" y="344" width="210" height="30" as="geometry" />
        </mxCell>
        <mxCell id="sdLNeCAJGCO7a3UpZfQ9-10" value="&lt;b&gt;Animal&lt;/b&gt; ( &lt;u&gt;Id_animal&lt;/u&gt;, nome, alergia, tipo, #Id_dono )" style="text;html=1;strokeColor=none;fillColor=none;align=center;verticalAlign=middle;whiteSpace=wrap;rounded=0;fontSize=15;" parent="1" vertex="1">
          <mxGeometry x="20" y="374" width="330" height="30" as="geometry" />
        </mxCell>
        <mxCell id="sdLNeCAJGCO7a3UpZfQ9-11" value="&lt;b&gt;Tratamento&lt;/b&gt; ( &lt;u&gt;Id_tratamento&lt;/u&gt;, descricao, dataInicio,dataFim, #Id_equipe,#Id_animal )" style="text;html=1;strokeColor=none;fillColor=none;align=center;verticalAlign=middle;whiteSpace=wrap;rounded=0;fontSize=15;" parent="1" vertex="1">
          <mxGeometry x="20" y="404" width="550" height="30" as="geometry" />
        </mxCell>
        <mxCell id="sdLNeCAJGCO7a3UpZfQ9-12" value="&lt;b&gt;Vacina&lt;/b&gt; ( &lt;u&gt;Id_vacina&lt;/u&gt;, nomeVacina, validadeEfeito, dataVacinacao #Id_animal )" style="text;html=1;strokeColor=none;fillColor=none;align=center;verticalAlign=middle;whiteSpace=wrap;rounded=0;fontSize=15;" parent="1" vertex="1">
          <mxGeometry x="20" y="434" width="500" height="30" as="geometry" />
        </mxCell>
        <mxCell id="sdLNeCAJGCO7a3UpZfQ9-13" value="&lt;b&gt;Exame&lt;/b&gt; ( &lt;u&gt;Id_exame&lt;/u&gt;, nome, data, resultado, #Id_animal, #Id_veterinario )" style="text;html=1;strokeColor=none;fillColor=none;align=center;verticalAlign=middle;whiteSpace=wrap;rounded=0;fontSize=15;" parent="1" vertex="1">
          <mxGeometry x="20" y="464" width="470" height="30" as="geometry" />
        </mxCell>
        <mxCell id="sdLNeCAJGCO7a3UpZfQ9-14" value="&lt;b&gt;Internação&lt;/b&gt; ( &lt;u&gt;Id_internacao&lt;/u&gt;, estado, dataEntrada, dataSaida, #Id_animal, #Id_baia )" style="text;html=1;strokeColor=none;fillColor=none;align=center;verticalAlign=middle;whiteSpace=wrap;rounded=0;fontSize=15;" parent="1" vertex="1">
          <mxGeometry x="20" y="494" width="540" height="30" as="geometry" />
        </mxCell>
        <mxCell id="sdLNeCAJGCO7a3UpZfQ9-15" value="&lt;b&gt;Telefone&lt;/b&gt; ( &lt;u&gt;#id_pessoa,telefone&lt;/u&gt;)" style="text;html=1;strokeColor=none;fillColor=none;align=center;verticalAlign=middle;whiteSpace=wrap;rounded=0;fontSize=15;" parent="1" vertex="1">
          <mxGeometry x="20" y="130" width="220" height="30" as="geometry" />
        </mxCell>
        <mxCell id="7oXaqJnH841VH_D5Xylo-1" value="&lt;b&gt;Recepcionista&lt;/b&gt; ( &lt;u&gt;Id_recepcionista&lt;/u&gt;,#id_funcionario)" style="text;html=1;strokeColor=none;fillColor=none;align=center;verticalAlign=middle;whiteSpace=wrap;rounded=0;fontSize=15;" parent="1" vertex="1">
          <mxGeometry x="20" y="164" width="330" height="30" as="geometry" />
        </mxCell>
        <mxCell id="CicVd9yCnp0I44kqji6g-1" value="&lt;b&gt;Pessoa&lt;/b&gt; ( &lt;u&gt;Id_pessoa&lt;/u&gt;, nome)" style="text;html=1;strokeColor=none;fillColor=none;align=center;verticalAlign=middle;whiteSpace=wrap;rounded=0;fontSize=15;" vertex="1" parent="1">
          <mxGeometry x="20" y="70" width="190" height="30" as="geometry" />
        </mxCell>
        <mxCell id="GLQ3UUEENlT0YwsbKA43-1" value="&lt;b&gt;Veterinario_Equipe&lt;/b&gt; ( &lt;u&gt;#Id_veterinario, #id_equipe&lt;/u&gt;)" style="text;html=1;strokeColor=none;fillColor=none;align=center;verticalAlign=middle;whiteSpace=wrap;rounded=0;fontSize=15;" vertex="1" parent="1">
          <mxGeometry x="20" y="530" width="330" height="30" as="geometry" />
        </mxCell>
      </root>
    </mxGraphModel>
  </diagram>
  <diagram id="xBtK4PwS41yjwEtgl1wT" name="Operações (Algebra Relacional)">
    <mxGraphModel dx="1182" dy="789" grid="1" gridSize="10" guides="1" tooltips="1" connect="1" arrows="1" fold="1" page="1" pageScale="1" pageWidth="827" pageHeight="1169" math="0" shadow="0">
      <root>
        <mxCell id="0" />
        <mxCell id="1" parent="0" />
      </root>
    </mxGraphModel>
  </diagram>
  <diagram id="j022H6apColSaOhkmiDn" name="Triggers">
    <mxGraphModel dx="1182" dy="789" grid="1" gridSize="10" guides="1" tooltips="1" connect="1" arrows="1" fold="1" page="1" pageScale="1" pageWidth="827" pageHeight="1169" math="0" shadow="0">
      <root>
        <mxCell id="0" />
        <mxCell id="1" parent="0" />
      </root>
    </mxGraphModel>
  </diagram>
  <diagram id="4fnVnqlfEY3YQLuZKROA" name="Procedimentos">
    <mxGraphModel dx="1182" dy="789" grid="1" gridSize="10" guides="1" tooltips="1" connect="1" arrows="1" fold="1" page="1" pageScale="1" pageWidth="827" pageHeight="1169" math="0" shadow="0">
      <root>
        <mxCell id="0" />
        <mxCell id="1" parent="0" />
      </root>
    </mxGraphModel>
  </diagram>
  <diagram id="zjlCh45ct77G0QikEqsD" name="Funções">
    <mxGraphModel dx="1182" dy="789" grid="1" gridSize="10" guides="1" tooltips="1" connect="1" arrows="1" fold="1" page="1" pageScale="1" pageWidth="827" pageHeight="1169" math="0" shadow="0">
      <root>
        <mxCell id="0" />
        <mxCell id="1" parent="0" />
      </root>
    </mxGraphModel>
  </diagram>
  <diagram id="RSaX65C-9utQTsYzOjY5" name="Vistas">
    <mxGraphModel dx="1182" dy="789" grid="1" gridSize="10" guides="1" tooltips="1" connect="1" arrows="1" fold="1" page="1" pageScale="1" pageWidth="827" pageHeight="1169" math="0" shadow="0">
      <root>
        <mxCell id="0" />
        <mxCell id="1" parent="0" />
      </root>
    </mxGraphModel>
  </diagram>
</mxfile>
